PathFileType	4	(X/Y/Z)	C:/Users/beibeiliu/ov580/test_trc/User2\sequence.5_training_dense_left.trc
DataRate	CameraRate	NumFrames	NumMarkers	Units	OrigDataRate	OrigDataStartFrame	OrigNumFrames
120	120	18	19	mm	120	313	417
Frame#	Time	ThumbCMC			ThumbMCP			ThumbIP			ThumbTip			IndexMCP			IndexPIP			IndexTip			MiddleMCP			MiddlePIP			MiddleTip			RingMCP			RingPIP			RingTip			PinkyMCP			PinkyPIP			PinkyTip			BackHand1			BackHand2			BackHand3	
		X0	Y0	Z0	X1	Y1	Z1	X2	Y2	Z2	X3	Y3	Z3	X4	Y4	Z4	X5	Y5	Z5	X6	Y6	Z6	X7	Y7	Z7	X8	Y8	Z8	X9	Y9	Z9	X10	Y10	Z10	X11	Y11	Z11	X12	Y12	Z12	X13	Y13	Z13	X14	Y14	Z14	X15	Y15	Z15	X16	Y16	Z16	X17	Y17	Z17	X18	Y18	Z18	
312	2.6	-180.25	0.872931	109.904	-185.679	-31.8313	94.259	-199.075	-58.6637	77.1192	-225.54	-70.6569	66.2796	-215.892	8.35689	36.2164	-222.234	-5.13774	10.0816	-231.393	-18.8682	-13.1595	-246.473	-7.82664	45.308	-242.382	-47.2967	42.4644	-227.507	-60.4382	77.5373	-262.949	-18.2046	58.3393	-256.868	-48.8707	59.284	-235.571	-59.6898	87.4205	-274.314	-19.5084	76.316	-263.664	-50.4159	79.1645	-245.091	-60.6727	100.248	-249.89	28.8452	101.627	-238.27	40.9589	134.132	-209.344	36.133	106.558	
313	2.60833	-175.964	-4.23509	112.595	-185.598	-35.5363	96.1779	-207.808	-61.7455	72.7523	-231.228	-70.8915	63.1097	-209.277	10.2121	37.6901	-219.426	1.78717	11.7569	-227.208	-8.90181	-15.0736	-239.244	-3.07133	40.5344	-251.004	-39.8559	41.1318	-234.213	-58.0596	73.8434	-260.748	-10.9855	55.0637	-263.69	-42.1137	60.6426	-241.684	-55.1178	87.3187	-271.336	-7.17686	77.465	-267.794	-42.1777	76.5131	-247.478	-51.7915	99.3672	-238.748	35.3179	97.3861	-228.144	46.8594	131.728	-199.777	35.6952	103.127	
314	2.61667	-175.749	-7.38048	111.634	-190.748	-40.1338	94.1112	-209.728	-64.2796	76.4535	-237.119	-68.7143	67.4504	-207.774	9.2691	37.2899	-219.059	0.547716	10.2283	-228.669	-10.8356	-16.0086	-240.056	0.824678	42.6985	-251.801	-34.769	39.1986	-239.773	-55.0643	71.4711	-261.293	-2.10641	57.3754	-262.227	-34.055	56.3649	-246.262	-50.2471	84.446	-269.353	-1.7404	73.8353	-272.373	-32.9573	76.7735	-252.154	-47.6976	100.211	-235.1	37.1147	97.079	-220.671	47.5424	130.942	-196.749	34.2332	101.378	
315	2.625	-174.735	-11.682	109.959	-193.509	-42.9541	96.1105	-216.048	-64.2446	80.4796	-245.493	-69.3861	66.5973	-211.313	3.31914	31.3515	-222.909	-6.95976	8.09077	-237.742	-21.8122	-11.0802	-241.006	-3.01693	39.5235	-254.328	-37.3891	41.6805	-245.323	-53.9875	75.906	-259.001	-1.32469	56.5869	-265.717	-33.4196	61.5474	-250.398	-46.5663	89.5261	-268.809	1.93965	75.929	-270.328	-31.7427	80.3375	-249.524	-40.9658	105.05	-225.285	37.995	96.6949	-214.376	48.9053	127.028	-190.509	33.2182	99.8763	
316	2.63333	-177.179	-13.5866	108.81	-198.314	-42.7871	95.7786	-222.019	-68.0226	79.455	-247.488	-68.4076	76.1668	-214.374	-1.32786	37.4229	-234.945	-14.3018	18.1766	-252.972	-37.5859	1.19326	-241.649	-3.42549	42.9322	-260.64	-34.8349	48.444	-247.66	-53.8556	83.1358	-263.546	-1.94521	59.6453	-270.8	-31.2188	65.9252	-254.306	-43.9809	94.9127	-273.618	3.3464	79.1089	-274.464	-28.5343	87.4394	-251.972	-37.5723	106.744	-222.669	39.0757	97.4896	-205.766	49.7524	124.904	-184.953	30.1732	95.2618	
317	2.64167	-175.18	-17.9888	107.068	-197.903	-46.1633	99.8108	-225.101	-68.5507	84.908	-254.158	-69.7865	77.594	-225.101	-6.81376	38.8531	-243.692	-21.9993	26.0608	-267.86	-44.3596	18.4984	-246.943	-1.60003	48.4936	-261.331	-38.5731	51.8965	-254.257	-52.4035	86.4253	-265.443	-1.04914	63.8032	-272.091	-29.8475	68.725	-253.996	-42.7208	99.1386	-271.27	7.52712	83.4409	-275.736	-26.8031	91.2596	-251.865	-36.41	114.06	-222.201	41.2827	97.815	-203.312	47.9633	124.06	-185.795	26.497	95.181	
318	2.65	-175.194	-19.3496	106.652	-198.26	-47.4419	100.22	-228.783	-67.7193	86.5459	-255.074	-65.6721	83.0419	-226.012	-8.75633	38.1414	-243.033	-25.1307	24.0862	-267.276	-41.447	19.1264	-248.018	-7.89041	46.2415	-267.523	-35.0013	56.691	-253.318	-52.8199	89.6603	-260.965	0.757887	64.8848	-274.063	-30.1157	73.4966	-252.201	-41.545	103.918	-271.441	8.99291	86.6746	-274.66	-24.3564	93.1289	-255.522	-32.0498	115.057	-220.174	39.8442	98.6946	-200.501	47.2235	124.308	-182.634	27.1238	95.2408	
319	2.65833	-176.812	-21.7163	105.03	-198.891	-50.5818	100.521	-230.711	-69.5828	87.8928	-256.912	-63.9638	85.44	-220.569	-8.40885	34.6763	-240.553	-18.5417	21.9458	-266.315	-34.8824	11.4263	-251.235	-5.38555	48.3313	-266.131	-38.4444	58.0323	-254.312	-52.2625	90.5941	-262.619	-1.40387	65.4894	-273.245	-27.7432	75.7042	-253.715	-40.299	105.503	-267.391	7.94539	85.6678	-277.092	-21.9594	98.3013	-251.44	-30.5915	119.688	-221.233	37.3251	94.1335	-197.139	46.2228	122.018	-183.222	26.4403	94.2768	
320	2.66667	-176.108	-19.2924	108.221	-202.73	-49.992	98.1701	-232.711	-67.1608	88.4274	-261.046	-62.7121	82.7218	-217.09	-4.28159	37.7966	-232.828	-16.1339	14.806	-255.44	-31.2348	-3.347	-247.189	-3.96934	50.0685	-265.624	-38.0666	57.4916	-255.219	-48.9664	93.9617	-263.815	-3.20047	65.8271	-274.005	-30.214	80.055	-250.605	-39.1967	110.084	-268.918	9.45796	86.7535	-272.923	-23.7124	95.8279	-248.136	-29.1145	121.181	-220.819	40.3158	94.4308	-196.897	47.543	120.79	-180.811	23.7129	95.9794	
321	2.675	-177.828	-20.3969	104.814	-199.249	-53.995	100.67	-229.589	-69.1813	90.4608	-260.535	-65.9496	84.3847	-217.299	-5.93765	33.6301	-227.378	-16.2774	13.7478	-250.316	-26.6254	-8.43587	-246.021	-8.50184	46.368	-264.826	-34.5495	56.2942	-252.265	-50.6225	92.6632	-259.108	-2.13628	65.1502	-269.978	-31.8336	78.6614	-249.507	-40.1371	107.348	-264.109	9.07386	85.7106	-272.853	-23.6931	98.2955	-246.491	-29.5586	119.231	-217.206	37.9562	95.0922	-192.942	46.4138	119.956	-180	24.1504	93.576	
322	2.68333	-173.003	-22.0739	109.595	-200.638	-52.5895	100.095	-229.284	-71.1267	91.534	-259.878	-62.7092	86.0725	-217.582	-7.64008	33.6249	-230.778	-15.6451	15.7729	-250.983	-26.4895	-2.3244	-243.34	-9.94137	46.887	-265.221	-35.2605	58.6048	-247.777	-53.428	93.9079	-260.985	-2.22347	68.1367	-270.541	-30.614	79.5651	-249.435	-40.1173	105.463	-265.517	5.90198	85.0395	-272.826	-23.8599	100.492	-248.015	-29.6178	115.814	-213.182	34.5413	95.347	-193.936	44.0058	120.274	-182.362	21.1589	91.37	
323	2.69167	-172.62	-24.769	106.516	-197.473	-52.1313	103.182	-227.237	-67.4325	95.3688	-256.68	-64.6489	90.1016	-217.837	-9.56224	36.7799	-231.171	-21.1356	18.0708	-257.507	-32.537	1.09684	-243.81	-9.89847	49.6917	-262.638	-39.8824	59.9031	-245.594	-53.6952	96.2779	-260.343	-6.62936	66.7354	-271.382	-30.7063	82.8599	-247.412	-39.1431	111.069	-264.202	6.10557	87.427	-271.463	-24.8958	100.049	-244.965	-29.7562	121.308	-214.232	39.0903	97.5959	-193.865	43.5364	118.62	-176.876	18.2047	90.4666	
324	2.7	-172.603	-24.9381	107.533	-197.907	-50.6971	104.159	-228.731	-70.0855	93.7042	-255.586	-66.5435	91.6044	-220.156	-10.4085	41.1901	-240.724	-21.772	23.873	-262.133	-34.5775	9.89108	-243.884	-8.32996	52.4816	-265.759	-37.2257	62.4942	-250.528	-51.8264	96.7441	-259.24	-7.51401	68.6478	-269.863	-32.3411	81.8442	-245.892	-39.5615	112.148	-262.516	6.85833	89.2361	-271.863	-25.386	103.902	-243.44	-30.2346	119.695	-215.304	37.8788	96.5725	-192.959	44.6677	121.17	-177.805	21.2391	93.6665	
325	2.70833	-171.057	-25.6305	106.149	-196.291	-55.8432	101.226	-228.989	-70.4687	90.8297	-255.559	-65.6992	90.0424	-220.408	-10.7535	42.3923	-241.045	-23.0331	24.1835	-262.888	-33.022	11.6836	-246.303	-10.9486	52.265	-264.83	-38.4126	64.242	-246.628	-54.356	96.2046	-260.112	-3.74977	70.941	-270.589	-34.1015	86.5893	-245.706	-41.367	110.191	-263.865	5.73223	89.3186	-269.737	-27.863	102.665	-243.271	-30.5079	121.176	-214.556	34.9736	95.2211	-194.708	42.7691	119.501	-177.084	17.4085	92.5642	
326	2.71667	-172.169	-23.27	107.452	-195.507	-55.2992	99.0665	-223.564	-69.652	92.1919	-254.272	-65.8406	86.441	-217.08	-8.49397	39.0518	-238.413	-19.0548	17.1037	-257.634	-29.4386	2.28117	-242.953	-9.87951	51.4151	-263.2	-40.5113	65.3223	-246.19	-55.8281	93.5734	-257.537	-5.78741	68.0337	-268.164	-32.8389	82.6126	-242.976	-42.3476	107.244	-264.884	2.03285	87.724	-269.168	-27.8921	102.389	-243.895	-34.2661	118.873	-215.898	36.3272	95.3183	-192.372	43.805	118.685	-177.593	19.8826	93.1332	
327	2.725	-171.336	-24.242	106.384	-192.434	-56.6023	99.0471	-225.503	-70.0782	87.3934	-251.698	-68.1429	83.4117	-210.998	-5.42864	37.8663	-231.244	-12.7889	15.5214	-247.361	-19.9979	-3.0154	-241.706	-11.2661	48.2932	-260.545	-40.0512	61.7192	-245.205	-54.5489	93.4519	-258.465	-6.95373	68.0538	-267.197	-33.8893	80.2165	-241.435	-43.2731	108.213	-262.454	2.55716	85.8552	-270.306	-26.1693	98.7432	-241.641	-31.846	118.489	-213.603	35.4058	98.1367	-190.956	41.7101	123.655	-176.97	19.7534	93.8653	
328	2.73333	-168.447	-27.0804	104.238	-192.709	-54.333	97.5979	-223.412	-69.5079	83.8089	-248.949	-67.7446	81.43	-203.771	-5.61607	35.1241	-223.295	-10.454	8.57983	-237.846	-15.156	-9.1605	-237.822	-9.03483	47.0579	-258.747	-37.5789	55.8464	-241.645	-57.1126	88.246	-253.948	-5.67477	66.5377	-265.32	-33.4658	76.3568	-241.671	-45.1012	102.83	-263.66	4.78645	87.4442	-266.453	-29.1582	96.4906	-238.607	-33.4208	116.371	-215.01	34.8291	94.5362	-193.918	42.3768	121.161	-173.195	19.3197	91.7289	
329	2.74167	-169.061	-23.3138	107.218	-192.031	-55.4291	95.2815	-220.107	-74.2131	82.2593	-248.89	-70.9873	78.0956	-204.241	-4.46076	31.3577	-216.449	-11.813	7.63043	-236.021	-15.7448	-12.7176	-234.891	-10.0295	45.1132	-256.166	-41.5268	53.7701	-240.203	-58.3539	89.2538	-255.25	-6.21596	65.1085	-262.304	-39.2423	76.2254	-242.475	-47.9405	102.798	-262.69	-2.48406	83.6233	-262.966	-32.7635	92.3275	-240.775	-36.965	114.956	-215.565	34.7338	94.7897	-196.672	40.311	121.148	-176.422	20.3849	94.7112	
